<svg id="Layer_1" data-name="Layer 1" xmlns="http://www.w3.org/2000/svg" viewBox="0 0 300.74 148.87"><defs><style>.cls-1{fill:#fff;}</style></defs><path class="cls-1" d="M20.33,44c3.36-.68,7.31-1.55,11.45-2.59L40.84,25c3.62-6.5,6.24-11.2,6.45-12.29.83-3.44,4-2.31,5.5.8a9,9,0,0,1,.31,7.27,70.39,70.39,0,0,1-3.43,6.69l-6.43,11.2a127.67,127.67,0,0,1,13.23-2.39c6.11-.84,11.24-1.14,14-.2,2.36.75,4.9,2.6,5.47,3.7.58.91,0,1.45-3,1.42C69,41,62.7,42,55.59,43.34c-5.33,1-11.45,2.23-17,3.62C34.79,53.82,31,61.05,27.73,67.74c-10.9,22.6-15.27,42.18-11.16,45.14,3.7,2.77,11.81.5,15.18-1.82,2.19-1.43,3.74.22,3.91,2.41a5.47,5.47,0,0,1-2.42,5.06,15.29,15.29,0,0,1-19.1-.77,20.22,20.22,0,0,1-6.9-15.9c.08-6.54,3.34-16.14,7.8-26.64,3.44-8.14,7.88-17,12.11-25.31-6.72,1.92-11.66,3.32-12.84,3.85C11.73,55,9,53.15,7.64,51s-1.32-4.75,1.63-4.89C11.24,46.09,15.19,45.23,20.33,44Z"/><path class="cls-1" d="M81.19,77.09A147.06,147.06,0,0,1,59.35,91.93c-.27,6.18,1.85,10.75,6.38,11,8.66.47,21.37-8.66,32.13-19.08,9-8.8,16.76-18.16,19.57-23.22,1.21-2.17,3.17-1.6,4.14,0a5.33,5.33,0,0,1,.54,4.55c-2.64,6.15-10,17-19.62,26.31-9.56,9.53-21.28,17.57-31.72,18.18a18.62,18.62,0,0,1-15.49-6.55c-5.63-6.79-6.87-18.44.18-31.81,8.66-16.45,18.6-24,27.88-26,5.53-1.21,10-.06,12.77,2.51a8.78,8.78,0,0,1,2.46,8.76C97.32,62.37,89.75,70.1,81.19,77.09ZM61.43,82.68A132.54,132.54,0,0,0,80.72,66.9c6.58-6.46,11.38-12.77,10.22-15-1.34-2.56-7.3,1.19-13.67,7.3A74.44,74.44,0,0,0,64.27,76,37,37,0,0,0,61.43,82.68Z"/><path class="cls-1" d="M112.51,93.28c3.56-1.41,7.52-3,11.48-4.78-2.47-7.12-8.3-14.09-7.2-24.26.66-5.63,5.07-12.12,10.45-17.52,4.78-4.67,10.15-8.42,14.09-9.28a7.59,7.59,0,0,1,6.29,1.71c2.92,2.39,3.67,6.22-.08,6.54-3.75.5-9.11,3.89-13.88,8.2s-8.78,9.53-9,13.17c-.66,6,3.21,11.85,5.89,18.43,2.18-1.07,4.36-2.13,6.54-3.38a83.11,83.11,0,0,0,13.7-9.29A52.16,52.16,0,0,0,161,61.12,2.13,2.13,0,0,1,164.5,61a5.65,5.65,0,0,1,.71,6c-1.42,3.62-4.41,7.22-8.59,10.81a90.48,90.48,0,0,1-15.29,10.54c-3,1.61-6,3-8.92,4.44a20.72,20.72,0,0,1-.47,6.91,15.9,15.9,0,0,1-8.4,10.26c-5.35,2.85-12.25,3.31-18,2.34a9.86,9.86,0,0,1-5.85-4.43,8.42,8.42,0,0,1-1.1-7.11C99.25,98.94,105,96.46,112.51,93.28Zm.71,7.28c-4.36,1.77-7.53,3.37-8.53,5l-.4.54c2.16.75,8.66.1,13.62-2.39,3.36-1.59,6-4.11,6.78-7.73C120.54,97.74,116.58,99.14,113.22,100.56Z"/><path class="cls-1" d="M218.55,36.16a4.83,4.83,0,0,1,2.13,3.66c.17,2.37-2.24,6.16-3.24,7.6,2.35,1.3,6.48,1.71,8.84,2.29A7,7,0,0,1,230.77,53a5,5,0,0,1-.06,4.73c-2.82,5.42-6.85,13.19-10.29,20.42-5.25,11-9.3,21.17-6.56,22.11,3.93,1.32,13.28-7.3,22.06-16.83C243.51,75,250.7,66,252.92,62.2c1-1.81,2.57-1.24,3.73.23a5.41,5.41,0,0,1,.33,6,166.1,166.1,0,0,1-16,21.45c-6,6.84-12.37,12.94-17.91,15.61-5.74,2.66-10.46,1.87-13.58-.71a13,13,0,0,1-4.59-11.87c.86-6.17,3.9-13.23,7.12-19.55,3.63-7.23,7.65-13.55,8.27-16.63.84-3.81-5.08-3.15-7.44-3.55A18.09,18.09,0,0,1,206.48,58a28.84,28.84,0,0,1-10.28,3c.13,6.18-2.72,13.42-11.12,24.6-9.6,12.79-17.93,17.24-22.28,19.19-2.18.88-5.13.3-7.87-1.19a16.71,16.71,0,0,1-7.39-7.9c-2.11-4.93,0-14.73,7.81-27.36,8.83-14.26,19.56-22.14,25.27-22.25a10,10,0,0,1,5.3,1.7c1.56,1.11,2.53,2.57,2.32,3.66a5.66,5.66,0,0,1,3.34,1.13,6.08,6.08,0,0,1,2.14,1.66,18.44,18.44,0,0,0,12.47-4.94,36.39,36.39,0,0,0,8-13.36C214.64,34.48,216.8,34.87,218.55,36.16Zm-62,62.73c2.74,1.85,13.69-8,21.7-19.2,4.81-6.86,8.63-14.08,9.68-19.53a10.18,10.18,0,0,1-3.72-1.86c-1.76-1.47-2.53-2.75-2.71-4-6.14,2.84-12.72,9.85-17.54,17.43C154.75,85.77,152.85,96.48,156.56,98.89Z"/><path class="cls-1" d="M257.5,73.53c-5.86,12.29-11.74,26.77-6.84,29.19,3.92,1.86,13.81-1.84,22.53-6.28,6.93-3.56,13.09-7.85,14.3-10.2,1.21-2.16,3.95-1,4.31,1.69a6.08,6.08,0,0,1-1.23,4.53c-2,2.89-6.58,6.47-11.94,9.86-6.94,4.28-15.26,8-22.16,9a12.18,12.18,0,0,1-12.55-5.42c-3.09-4.76-4-11.5-2.55-17.48,1.66-7.07,6.11-16.66,10.34-24.61,3.63-7,7.24-13,8.25-14.81s2.77-1.42,4.53-.13c1.95,1.66,3.69,4.59,2.08,7.48C265.36,58.35,261.34,65.39,257.5,73.53Z"/><path class="cls-1" d="M275.08,21.38c3.72,1.68,4.26,5.69,1.68,7.11-2.38,1.43-6.13.65-9.26-.84s-3.08-6.4-.51-7.47C269.57,18.94,271.35,19.52,275.08,21.38Z"/><path class="cls-1" d="M53,134.86V123.48h3.76a4.76,4.76,0,0,1,3.51,1.36,4.67,4.67,0,0,1,1.36,3.47V130a4.68,4.68,0,0,1-1.36,3.48,4.78,4.78,0,0,1-3.51,1.34Zm1.9-9.85v8.33h1.86a2.72,2.72,0,0,0,2.17-.92,3.53,3.53,0,0,0,.8-2.38V128.3a3.52,3.52,0,0,0-.8-2.37,2.75,2.75,0,0,0-2.17-.92Z"/><path class="cls-1" d="M71.68,129.74H67.22v3.6h5.25v1.52H65.33V123.48h7.09V125h-5.2v3.21h4.46Z"/><path class="cls-1" d="M81.78,131.94a1.5,1.5,0,0,0-.51-1.17,4.64,4.64,0,0,0-1.78-.81,7.54,7.54,0,0,1-2.83-1.33,2.65,2.65,0,0,1-1-2.15,2.82,2.82,0,0,1,1.09-2.27,4.35,4.35,0,0,1,2.82-.89,4.26,4.26,0,0,1,3,1,3,3,0,0,1,1.06,2.44v0H81.74a1.81,1.81,0,0,0-.6-1.43,2.28,2.28,0,0,0-1.59-.53,2.2,2.2,0,0,0-1.48.45,1.46,1.46,0,0,0-.52,1.17,1.29,1.29,0,0,0,.57,1.08,5.92,5.92,0,0,0,1.89.81,6.83,6.83,0,0,1,2.73,1.36,2.91,2.91,0,0,1,.94,2.21,2.7,2.7,0,0,1-1.11,2.26,4.71,4.71,0,0,1-2.92.84,5,5,0,0,1-3-.92,2.9,2.9,0,0,1-1.25-2.6l0-.05h1.82a1.81,1.81,0,0,0,.71,1.55,2.88,2.88,0,0,0,1.72.52,2.57,2.57,0,0,0,1.57-.43A1.38,1.38,0,0,0,81.78,131.94Z"/><path class="cls-1" d="M89.28,134.86h-1.9V123.48h1.9Z"/><path class="cls-1" d="M101.85,133.32a3.94,3.94,0,0,1-1.49,1.18,5.86,5.86,0,0,1-2.66.52,4.46,4.46,0,0,1-3.31-1.3,4.53,4.53,0,0,1-1.3-3.36V128a4.67,4.67,0,0,1,1.25-3.36,4.3,4.3,0,0,1,3.24-1.3,4.44,4.44,0,0,1,3.09,1,3.27,3.27,0,0,1,1.08,2.61l0,0H99.92a2.07,2.07,0,0,0-.6-1.55,2.6,2.6,0,0,0-3.61.3A3.42,3.42,0,0,0,95,128v2.39a3.37,3.37,0,0,0,.75,2.26,2.46,2.46,0,0,0,2,.89,4.08,4.08,0,0,0,1.45-.21,2.11,2.11,0,0,0,.8-.5v-2.35H97.57V129h4.28Z"/><path class="cls-1" d="M114.66,134.86h-1.9l-5-8.2,0,0v8.18h-1.9V123.48h1.9l5,8.2.05,0v-8.18h1.9Z"/><path class="cls-1" d="M123.52,131.79a2.6,2.6,0,0,1,.52-1.63,6.94,6.94,0,0,1,1.59-1.42,6.79,6.79,0,0,1-.84-1.33,2.75,2.75,0,0,1-.28-1.21,2.79,2.79,0,0,1,.8-2.13,3.05,3.05,0,0,1,2.18-.75,2.79,2.79,0,0,1,2,.75,2.38,2.38,0,0,1,.78,1.8,2.49,2.49,0,0,1-.38,1.37,4.71,4.71,0,0,1-1.11,1.13L128,129l2.36,2.81a4.41,4.41,0,0,0,.49-1.08,4.53,4.53,0,0,0,.17-1.24h1.6a6.34,6.34,0,0,1-.3,2,4.76,4.76,0,0,1-.88,1.61l1.5,1.78v0h-2.14l-.63-.74a5.18,5.18,0,0,1-1.38.67,4.87,4.87,0,0,1-1.54.23,3.9,3.9,0,0,1-2.7-.9A3,3,0,0,1,123.52,131.79Zm3.77,1.72a3.38,3.38,0,0,0,1.86-.56l-2.54-3-.2.15a2.43,2.43,0,0,0-.79.85,1.81,1.81,0,0,0-.2.78,1.75,1.75,0,0,0,.49,1.28A1.87,1.87,0,0,0,127.29,133.51Zm-1-7.34a1.71,1.71,0,0,0,.19.77,4.29,4.29,0,0,0,.56.86l.85-.57a1.71,1.71,0,0,0,.6-.6,1.6,1.6,0,0,0,.15-.7,1,1,0,0,0-.33-.75,1.1,1.1,0,0,0-.85-.34,1,1,0,0,0-.86.39A1.5,1.5,0,0,0,126.29,126.17Z"/><path class="cls-1" d="M141.64,134.86V123.48h3.76a4.78,4.78,0,0,1,3.52,1.36,4.7,4.7,0,0,1,1.35,3.47V130a4.71,4.71,0,0,1-1.35,3.48,4.8,4.8,0,0,1-3.52,1.34Zm1.9-9.85v8.33h1.86a2.72,2.72,0,0,0,2.17-.92,3.49,3.49,0,0,0,.81-2.38V128.3a3.48,3.48,0,0,0-.81-2.37,2.75,2.75,0,0,0-2.17-.92Z"/><path class="cls-1" d="M160.31,129.74h-4.45v3.6h5.25v1.52H154V123.48h7.09V125h-5.19v3.21h4.45Z"/><path class="cls-1" d="M168.08,131.77l.2.83h.05l.19-.81,2.72-8.31h2l-4.06,11.38h-1.8l-4.06-11.38h2Z"/><path class="cls-1" d="M182.53,129.74h-4.46v3.6h5.25v1.52h-7.14V123.48h7.09V125h-5.2v3.21h4.46Z"/><path class="cls-1" d="M188.53,133.34h5.33v1.52h-7.22V123.48h1.89Z"/><path class="cls-1" d="M205.81,130.2a4.75,4.75,0,0,1-1.31,3.45,4.45,4.45,0,0,1-3.4,1.37,4.32,4.32,0,0,1-3.32-1.37,4.86,4.86,0,0,1-1.28-3.45v-2a4.86,4.86,0,0,1,1.28-3.45,4.32,4.32,0,0,1,3.32-1.38,4.48,4.48,0,0,1,3.4,1.38,4.75,4.75,0,0,1,1.31,3.45Zm-1.9-2.07a3.56,3.56,0,0,0-.75-2.33,2.54,2.54,0,0,0-2.06-.92,2.39,2.39,0,0,0-2,.92,3.66,3.66,0,0,0-.72,2.33v2.07a3.65,3.65,0,0,0,.73,2.35,2.38,2.38,0,0,0,2,.92,2.53,2.53,0,0,0,2.06-.92,3.56,3.56,0,0,0,.75-2.35Z"/><path class="cls-1" d="M211.33,130.55v4.31h-1.9V123.48h4.36a4.22,4.22,0,0,1,3,1,3.62,3.62,0,0,1,0,5.12,4.21,4.21,0,0,1-3,1Zm0-1.53h2.46a2,2,0,0,0,1.58-.56,2,2,0,0,0,.54-1.43,1.93,1.93,0,0,0-2.12-2h-2.46Z"/><path class="cls-1" d="M227,132.23H227l3.29-8.75h2.42v11.38h-1.9v-8.17h0l-3.14,8.18h-1.3l-3.19-8.34,0,0v8.32h-1.89V123.48h2.49Z"/><path class="cls-1" d="M243.08,129.74h-4.45v3.6h5.25v1.52h-7.15V123.48h7.09V125h-5.19v3.21h4.45Z"/><path class="cls-1" d="M256.07,134.86h-1.9l-5-8.2,0,0v8.18h-1.9V123.48h1.9l5,8.2,0,0v-8.18h1.9Z"/><path class="cls-1" d="M267.78,125h-3.51v9.85h-1.9V125h-3.46v-1.53h8.87Z"/></svg>